<!-- /public/github.svg -->
<svg viewBox="0 0 24 24" width="24" height="24" fill="currentColor" aria-hidden="true" xmlns="http://www.w3.org/2000/svg">
  <path d="M12 .5C5.73.5.9 5.33.9 11.6c0 4.86 3.15 8.98 7.51 10.43.55.1.75-.24.75-.53 0-.26-.01-.95-.01-1.86-3.05.66-3.69-1.32-3.69-1.32-.5-1.26-1.23-1.6-1.23-1.6-1-.69.08-.68.08-.68 1.1.08 1.68 1.14 1.68 1.14.99 1.69 2.6 1.2 3.23.92.1-.72.39-1.2.7-1.47-2.44-.28-5-1.22-5-5.43 0-1.2.43-2.18 1.12-2.95-.11-.27-.49-1.37.11-2.85 0 0 .92-.29 3.02 1.13.88-.25 1.8-.38 2.73-.38.93 0 1.86.13 2.73.38 2.1-1.42 3.02-1.13 3.02-1.13.6 1.48.22 2.58.11 2.85.69.77 1.12 1.75 1.12 2.95 0 4.22-2.56 5.14-5 5.42.4.35.75 1.05.75 2.12 0 1.53-.01 2.76-.01 3.14 0 .29.2.64.76.53A10.7 10.7 0 0 0 23.1 11.6C23.1 5.33 18.27.5 12 .5Z"></path>
</svg>
